<svg width="84" height="84" viewBox="0 0 84 84" fill="none" xmlns="http://www.w3.org/2000/svg">
<circle cx="42" cy="42" r="41" stroke="white" stroke-width="2"/>
<circle cx="42" cy="42" r="35" fill="white" stroke="#052F5B" stroke-width="10"/>
<path d="M43.6443 51.1879C42.9078 51.5469 42.1113 51.7264 41.2549 51.7264C39.8505 51.7264 38.7885 51.5091 38.0692 51.0745C38.0007 50.4887 37.9664 49.7328 37.9664 48.8069C37.9664 47.8809 38.1291 46.9266 38.4545 45.944C38.78 44.9424 39.1996 44.111 39.7134 43.4496C40.2444 42.7693 40.8267 42.1362 41.4605 41.5504C42.0942 40.9646 42.7279 40.3788 43.3617 39.793C43.9954 39.2072 44.5777 38.5836 45.1087 37.9222C46.2734 36.4294 46.8557 34.5113 46.8557 32.1681C46.8557 29.8249 46.359 28.0108 45.3656 26.7258C44.3893 25.4408 43.0534 24.7983 41.3577 24.7983C39.6792 24.7983 38.3432 25.3652 37.3498 26.499C36.3735 27.6328 35.8854 29.0123 35.8854 30.6374C35.8854 32.2437 36.3136 33.7365 37.17 35.116C36.8959 36.042 36.2022 36.7128 35.0889 37.1285C34.6779 37.2986 34.2325 37.3837 33.753 37.3837C30.6014 37.3459 29.0171 35.4184 29 31.6012C29 28.6722 29.9163 26.3289 31.749 24.5715C34.2325 22.1905 37.4783 21 41.4862 21C50.4954 21 55 24.7227 55 32.1681C55 35.5884 54.2464 38.2624 52.7391 40.1898C51.6601 41.5882 50.4183 42.7787 49.0138 43.7614C47.6094 44.7251 46.5731 45.4999 45.9051 46.0857C44.3979 47.4463 43.6443 49.147 43.6443 51.1879ZM36.5534 59.8899C36.5534 58.6427 37.0072 57.5278 37.915 56.5452C38.8399 55.5625 39.859 55.0712 40.9723 55.0712C42.0856 55.0712 42.9934 55.4397 43.6957 56.1767C44.415 56.9136 44.7747 57.9341 44.7747 59.238C44.7747 60.5419 44.2523 61.7513 43.2075 62.8662C42.4196 63.6221 41.4862 64 40.4071 64C39.3281 64 38.4117 63.6221 37.6581 62.8662C36.9216 62.1292 36.5534 61.1371 36.5534 59.8899Z" fill="#052F5B"/>
</svg>
