<svg width="80" height="80" viewBox="0 0 80 80" fill="none" xmlns="http://www.w3.org/2000/svg">
<circle cx="40" cy="40" r="35" fill="white" stroke="#052F5B" stroke-width="10"/>
<path d="M41.6443 49.1879C40.9078 49.5469 40.1113 49.7264 39.2549 49.7264C37.8505 49.7264 36.7885 49.5091 36.0692 49.0745C36.0007 48.4887 35.9664 47.7328 35.9664 46.8069C35.9664 45.8809 36.1291 44.9266 36.4545 43.944C36.78 42.9424 37.1996 42.111 37.7134 41.4496C38.2444 40.7693 38.8267 40.1362 39.4605 39.5504C40.0942 38.9646 40.7279 38.3788 41.3617 37.793C41.9954 37.2072 42.5777 36.5836 43.1087 35.9222C44.2734 34.4294 44.8557 32.5113 44.8557 30.1681C44.8557 27.8249 44.359 26.0108 43.3656 24.7258C42.3893 23.4408 41.0534 22.7983 39.3577 22.7983C37.6792 22.7983 36.3432 23.3652 35.3498 24.499C34.3735 25.6328 33.8854 27.0123 33.8854 28.6374C33.8854 30.2437 34.3136 31.7365 35.17 33.116C34.8959 34.042 34.2022 34.7128 33.0889 35.1285C32.6779 35.2986 32.2325 35.3837 31.753 35.3837C28.6014 35.3459 27.0171 33.4184 27 29.6012C27 26.6722 27.9163 24.3289 29.749 22.5715C32.2325 20.1905 35.4783 19 39.4862 19C48.4954 19 53 22.7227 53 30.1681C53 33.5884 52.2464 36.2624 50.7391 38.1898C49.6601 39.5882 48.4183 40.7787 47.0138 41.7614C45.6094 42.7251 44.5731 43.4999 43.9051 44.0857C42.3979 45.4463 41.6443 47.147 41.6443 49.1879ZM34.5534 57.8899C34.5534 56.6427 35.0072 55.5278 35.915 54.5452C36.8399 53.5625 37.859 53.0712 38.9723 53.0712C40.0856 53.0712 40.9934 53.4397 41.6957 54.1767C42.415 54.9136 42.7747 55.9341 42.7747 57.238C42.7747 58.5419 42.2523 59.7513 41.2075 60.8662C40.4196 61.6221 39.4862 62 38.4071 62C37.3281 62 36.4117 61.6221 35.6581 60.8662C34.9216 60.1292 34.5534 59.1371 34.5534 57.8899Z" fill="#052F5B"/>
</svg>
